<svg viewBox="0 0 24 24" fill="none" stroke="currentColor" stroke-width="2" stroke-linecap="round" stroke-linejoin="round" xmlns="http://www.w3.org/2000/svg"><path d="M18.5 21C9.94 21 3 14.06 3 5.5C3 5.11 3.01 4.73 3.04 4.35C3.07 3.92 3.09 3.7 3.2 3.5C3.3 3.34 3.47 3.18 3.64 3.1C3.84 3 4.08 3 4.56 3H7.38C7.78 3 7.98 3 8.16 3.07C8.31 3.13 8.45 3.22 8.55 3.34C8.68 3.48 8.75 3.67 8.88 4.05L10.05 7.26C10.21 7.7 10.29 7.92 10.28 8.13C10.26 8.32 10.2 8.49 10.09 8.65C9.97 8.82 9.77 8.94 9.37 9.18L8 10C9.2 12.65 11.35 14.8 14 16L14.82 14.63C15.06 14.23 15.18 14.03 15.35 13.91C15.51 13.8 15.68 13.74 15.87 13.72C16.08 13.71 16.3 13.79 16.74 13.95L19.95 15.12C20.33 15.26 20.52 15.32 20.66 15.45C20.78 15.55 20.87 15.69 20.93 15.84C21 16.02 21 16.22 21 16.62V19.44C21 19.92 21 20.16 20.9 20.36C20.82 20.53 20.66 20.7 20.5 20.8C20.3 20.91 20.08 20.93 19.65 20.96C19.27 20.99 18.89 21 18.5 21Z"/></svg>
