<svg viewBox="0 0 24 24" fill="none" stroke="currentColor" stroke-width="2" stroke-linecap="round" stroke-linejoin="round" xmlns="http://www.w3.org/2000/svg"><path d="M10 4H7.2C6.08 4 5.52 4 5.09 4.218C4.72 4.41 4.41 4.715 4.22 5.092C4 5.52 4 6.08 4 7.2V16.8C4 17.92 4 18.48 4.22 18.908C4.41 19.284 4.72 19.59 5.09 19.782C5.52 20 6.08 20 7.2 20H16.8C17.92 20 18.48 20 18.91 19.782C19.28 19.59 19.59 19.284 19.78 18.908C20 18.48 20 17.92 20 16.8V14M16 5L10 11V14H13L19 8M16 5L19 2L22 5L19 8M16 5L19 8"/></svg>
